<!-- Generated by IcoMoon.io -->
<svg version="1.1" xmlns="http://www.w3.org/2000/svg" width="32" height="32" viewBox="0 0 32 32">
<title>budget-estimation</title>
<path d="M4.5 14h2c0.276 0 0.5-0.224 0.5-0.5s-0.224-0.5-0.5-0.5v0h-2c-0.276 0-0.5 0.224-0.5 0.5s0.224 0.5 0.5 0.5v0zM5.5 11h14c0.828 0 1.5-0.672 1.5-1.5v0-3c0-0.828-0.672-1.5-1.5-1.5v0h-14c-0.828 0-1.5 0.672-1.5 1.5v0 3c0 0.828 0.672 1.5 1.5 1.5v0zM5 6.5c0-0.276 0.224-0.5 0.5-0.5v0h14c0.276 0 0.5 0.224 0.5 0.5v0 3c0 0.276-0.224 0.5-0.5 0.5v0h-14c-0.276 0-0.5-0.224-0.5-0.5v0zM20.5 13h-4c-0.276 0-0.5 0.224-0.5 0.5s0.224 0.5 0.5 0.5v0h4c0.276 0 0.5-0.224 0.5-0.5s-0.224-0.5-0.5-0.5v0zM19.5 15h-2c-0.828 0-1.5 0.672-1.5 1.5v0 1c0 0.828 0.672 1.5 1.5 1.5v0h2c0.828 0 1.5-0.672 1.5-1.5v0-1c0-0.828-0.672-1.5-1.5-1.5v0zM20 17.5c0 0.276-0.224 0.5-0.5 0.5v0h-2c-0.276 0-0.5-0.224-0.5-0.5v0-1c0-0.276 0.224-0.5 0.5-0.5v0h2c0.276 0 0.5 0.224 0.5 0.5v0zM8.5 13c-0.276 0-0.5 0.224-0.5 0.5s0.224 0.5 0.5 0.5v0h2c0.276 0 0.5-0.224 0.5-0.5s-0.224-0.5-0.5-0.5v0zM7.5 15h-2c-0.828 0-1.5 0.672-1.5 1.5v0 1c0 0.828 0.672 1.5 1.5 1.5v0h2c0.828 0 1.5-0.672 1.5-1.5v0-1c0-0.828-0.672-1.5-1.5-1.5v0zM8 17.5c0 0.276-0.224 0.5-0.5 0.5v0h-2c-0.276 0-0.5-0.224-0.5-0.5v0-1c0-0.276 0.224-0.5 0.5-0.5v0h2c0.276 0 0.5 0.224 0.5 0.5v0zM25 23h1c0.552 0 1 0.448 1 1v0c0 0.276 0.224 0.5 0.5 0.5s0.5-0.224 0.5-0.5v0c-0.003-1.103-0.897-1.997-2-2h-0v-0.5c0-0.276-0.224-0.5-0.5-0.5s-0.5 0.224-0.5 0.5v0 0.5c-1.104 0.001-1.998 0.896-1.998 2 0 0.282 0.058 0.55 0.163 0.793l-0.005-0.013c0.033 0.088 0.073 0.164 0.122 0.233l-0.002-0.003c0.041 0.080 0.088 0.149 0.141 0.212l-0.001-0.002c0.089 0.122 0.191 0.228 0.306 0.317l0.003 0.003c0.079 0.072 0.167 0.135 0.263 0.187l0.007 0.003c0.287 0.169 0.632 0.269 1 0.27h1c0.552 0 1 0.448 1 1s-0.448 1-1 1v0h-1c-0.552 0-1-0.448-1-1v0c0-0.276-0.224-0.5-0.5-0.5s-0.5 0.224-0.5 0.5v0c0 1.105 0.895 2 2 2v0 0.5c0 0.276 0.224 0.5 0.5 0.5s0.5-0.224 0.5-0.5v0-0.5c1.105 0 2-0.895 2-2s-0.895-2-2-2v0h-1c-0.552 0-1-0.448-1-1s0.448-1 1-1v0zM7.5 25h-2c-0.828 0-1.5 0.672-1.5 1.5v0 1c0 0.828 0.672 1.5 1.5 1.5v0h2c0.828 0 1.5-0.672 1.5-1.5v0-1c0-0.828-0.672-1.5-1.5-1.5v0zM8 27.5c0 0.276-0.224 0.5-0.5 0.5v0h-2c-0.276 0-0.5-0.224-0.5-0.5v0-1c0-0.276 0.224-0.5 0.5-0.5v0h2c0.276 0 0.5 0.224 0.5 0.5v0zM13.5 15h-2c-0.828 0-1.5 0.672-1.5 1.5v0 1c0 0.828 0.672 1.5 1.5 1.5v0h2c0.828 0 1.5-0.672 1.5-1.5v0-1c0-0.828-0.672-1.5-1.5-1.5v0zM14 17.5c0 0.276-0.224 0.5-0.5 0.5v0h-2c-0.276 0-0.5-0.224-0.5-0.5v0-1c0-0.276 0.224-0.5 0.5-0.5v0h2c0.276 0 0.5 0.224 0.5 0.5v0zM25.5 19c-0.006-0-0.014-0-0.021-0-0.525 0-1.035 0.066-1.521 0.189l0.043-0.009v-14.68c0-1.381-1.119-2.5-2.5-2.5v0h-18c-1.381 0-2.5 1.119-2.5 2.5v0 25c0 1.381 1.119 2.5 2.5 2.5v0h18c0.566 0 1.087-0.188 1.506-0.505l-0.006 0.005c0.738 0.316 1.598 0.5 2.5 0.5 3.59 0 6.5-2.91 6.5-6.5s-2.91-6.5-6.5-6.5v0zM21.5 31h-18c-0.828 0-1.5-0.672-1.5-1.5v0-25c0-0.828 0.672-1.5 1.5-1.5v0h18c0.828 0 1.5 0.672 1.5 1.5v0 15c-0.823 0.352-1.524 0.838-2.109 1.439l-0.001 0.001c-0.228-0.555-0.764-0.939-1.39-0.94h-2c-0.828 0-1.5 0.672-1.5 1.5v0 1c0 0.828 0.672 1.5 1.5 1.5v0h1.68c-0.073 0.286-0.129 0.627-0.158 0.976l-0.002 0.024h-1.52c-0.828 0-1.5 0.672-1.5 1.5v0 1c0 0.828 0.672 1.5 1.5 1.5v0h2c0.003 0 0.005 0 0.008 0 0.17 0 0.332-0.033 0.48-0.093l-0.009 0.003c0.502 0.817 1.155 1.493 1.926 2.005l0.024 0.015c-0.123 0.044-0.265 0.070-0.413 0.070-0.006 0-0.012-0-0.018-0h0.001zM20 21.5v1c0 0.276-0.224 0.5-0.5 0.5v0h-2c-0.276 0-0.5-0.224-0.5-0.5v0-1c0-0.276 0.224-0.5 0.5-0.5v0h2c0.276 0 0.5 0.224 0.5 0.5v0zM19.5 28h-2c-0.276 0-0.5-0.224-0.5-0.5v0-1c0-0.276 0.224-0.5 0.5-0.5v0h1.52c0.054 0.734 0.225 1.414 0.496 2.041l-0.016-0.041zM25.5 31c-0.001 0-0.002 0-0.004 0-0.644 0-1.262-0.114-1.834-0.322l0.037 0.012c-0.352-0.116-0.656-0.258-0.94-0.431l0.020 0.011c-1.666-0.966-2.771-2.738-2.78-4.769v-0.001c-0.001-0.021-0.001-0.045-0.001-0.070 0-0.116 0.008-0.231 0.022-0.343l-0.001 0.013c0.071-1.038 0.427-1.982 0.991-2.766l-0.011 0.016c0.514-0.733 1.186-1.322 1.97-1.726l0.030-0.014c0.285-0.154 0.617-0.291 0.964-0.391l0.036-0.009c0.444-0.133 0.954-0.21 1.482-0.21 0.006 0 0.013 0 0.019 0h-0.001c3.038 0 5.5 2.462 5.5 5.5s-2.462 5.5-5.5 5.5v0zM14.5 13h-2c-0.276 0-0.5 0.224-0.5 0.5s0.224 0.5 0.5 0.5v0h2c0.276 0 0.5-0.224 0.5-0.5s-0.224-0.5-0.5-0.5v0zM13.5 20h-2c-0.828 0-1.5 0.672-1.5 1.5v0 1c0 0.828 0.672 1.5 1.5 1.5v0h2c0.828 0 1.5-0.672 1.5-1.5v0-1c0-0.828-0.672-1.5-1.5-1.5v0zM14 22.5c0 0.276-0.224 0.5-0.5 0.5v0h-2c-0.276 0-0.5-0.224-0.5-0.5v0-1c0-0.276 0.224-0.5 0.5-0.5v0h2c0.276 0 0.5 0.224 0.5 0.5v0zM7.5 20h-2c-0.828 0-1.5 0.672-1.5 1.5v0 1c0 0.828 0.672 1.5 1.5 1.5v0h2c0.828 0 1.5-0.672 1.5-1.5v0-1c0-0.828-0.672-1.5-1.5-1.5v0zM8 22.5c0 0.276-0.224 0.5-0.5 0.5v0h-2c-0.276 0-0.5-0.224-0.5-0.5v0-1c0-0.276 0.224-0.5 0.5-0.5v0h2c0.276 0 0.5 0.224 0.5 0.5v0zM13.5 25h-2c-0.828 0-1.5 0.672-1.5 1.5v0 1c0 0.828 0.672 1.5 1.5 1.5v0h2c0.828 0 1.5-0.672 1.5-1.5v0-1c0-0.828-0.672-1.5-1.5-1.5v0zM14 27.5c0 0.276-0.224 0.5-0.5 0.5v0h-2c-0.276 0-0.5-0.224-0.5-0.5v0-1c0-0.276 0.224-0.5 0.5-0.5v0h2c0.276 0 0.5 0.224 0.5 0.5v0z"></path>
</svg>
