<!-- Generated by IcoMoon.io -->
<svg version="1.1" xmlns="http://www.w3.org/2000/svg" width="32" height="32" viewBox="0 0 32 32">
<title>money-saving</title>
<path d="M5.32 27.63h21.36c0.135 0 0.245-0.11 0.245-0.245v0-8.57c0-0.135-0.11-0.245-0.245-0.245h-21.36c-0.135 0-0.245 0.11-0.245 0.245v0 8.57c0 0.135 0.11 0.245 0.245 0.245v0zM7.82 20.865h16.37c0.138 0 0.25 0.112 0.25 0.25s-0.112 0.25-0.25 0.25v0h-16.38c-0.138 0-0.25-0.112-0.25-0.25s0.112-0.25 0.25-0.25v0zM7.82 22.865h16.37c0.138 0 0.25 0.112 0.25 0.25s-0.112 0.25-0.25 0.25v0h-16.38c-0.138 0-0.25-0.112-0.25-0.25s0.112-0.25 0.25-0.25v0zM7.82 24.865h16.37c0.138 0 0.25 0.112 0.25 0.25s-0.112 0.25-0.25 0.25v0h-16.38c-0.138 0-0.25-0.112-0.25-0.25s0.112-0.25 0.25-0.25v0z"></path>
<path d="M31.96 15.12v-0.030l-4.6-7.090c-0.332-0.514-0.902-0.85-1.551-0.85-0.001 0-0.003 0-0.004 0h-3.575c0-0.105 0-0.215 0-0.32 0-3.326-2.696-6.022-6.023-6.022s-6.023 2.696-6.023 6.022v0c0 0.105 0 0.215 0 0.32h-4c-0.646 0.003-1.213 0.338-1.541 0.843l-0.004 0.007-4.6 7.12c-0.024 0.037-0.039 0.082-0.040 0.13v14.63c0 0.726 0.589 1.315 1.315 1.315v0h29.365c0 0 0 0 0 0 0.727 0 1.317-0.588 1.32-1.315v-14.63c-0.001-0.048-0.016-0.093-0.041-0.131l0.001 0.001zM22.6 10.71c0.017-0.002 0.036-0.002 0.055-0.002 0.34 0 0.615 0.275 0.615 0.615s-0.275 0.615-0.615 0.615c-0.020 0-0.039-0.001-0.058-0.003l0.002 0h-3.19c0.547-0.34 1.014-0.747 1.408-1.216l0.007-0.009zM16.22 1.3c0.003 0 0.006 0 0.009 0 3.054 0 5.53 2.476 5.53 5.53 0 1.319-0.462 2.53-1.232 3.48l0.008-0.010s0 0 0 0c-0.569 0.697-1.294 1.244-2.124 1.592l-0.036 0.013h-4.275c-0.869-0.358-1.596-0.906-2.157-1.595l-0.008-0.010c-0.762-0.94-1.224-2.151-1.224-3.47 0-3.054 2.476-5.53 5.53-5.53 0.005 0 0.010 0 0.015 0h-0.001zM9.395 10.71h2.215c0.403 0.476 0.87 0.882 1.39 1.21l0.025 0.015h-3.63c-0.315-0.029-0.56-0.292-0.56-0.613s0.245-0.583 0.557-0.612l0.002-0zM31.5 29.88c0 0.456-0.369 0.825-0.825 0.825v0h-29.36c-0.451-0.006-0.815-0.373-0.815-0.825 0-0 0-0 0-0v0-14.38h31z"></path>
<path d="M16.22 11.585c2.626 0 4.755-2.129 4.755-4.755s-2.129-4.755-4.755-4.755c-2.626 0-4.755 2.129-4.755 4.755v0c0.006 2.624 2.131 4.749 4.754 4.755h0.001zM14.905 8.23c-0.002-0.011-0.003-0.024-0.003-0.037s0.001-0.026 0.003-0.039l-0 0.001c0.006-0.018 0.016-0.033 0.030-0.045l0-0h0.050c0.044 0.005 0.083 0.021 0.116 0.045l-0.001-0 0.205 0.105c0.085 0.037 0.186 0.071 0.291 0.097l0.014 0.003c0.126 0.032 0.27 0.050 0.419 0.050 0.004 0 0.008 0 0.012-0h-0.001c0.022 0.002 0.049 0.003 0.075 0.003 0.227 0 0.438-0.068 0.614-0.185l-0.004 0.003c0.141-0.105 0.232-0.271 0.232-0.459 0-0.015-0.001-0.029-0.002-0.043l0 0.002c0-0.006 0-0.012 0-0.019 0-0.108-0.032-0.209-0.087-0.293l0.001 0.002c-0.059-0.088-0.134-0.16-0.222-0.213l-0.003-0.002c-0.092-0.060-0.198-0.113-0.31-0.152l-0.010-0.003-0.325-0.125c-0.15-0.053-0.27-0.103-0.387-0.16l0.022 0.010c-0.121-0.057-0.225-0.127-0.316-0.211l0.001 0.001c-0.094-0.085-0.17-0.188-0.223-0.304l-0.002-0.006c-0.054-0.124-0.085-0.267-0.085-0.419 0-0.009 0-0.018 0-0.028l-0 0.001c0-0.002-0-0.005-0-0.007 0-0.139 0.026-0.273 0.073-0.396l-0.003 0.008c0.053-0.127 0.127-0.235 0.22-0.325l0-0c0.104-0.092 0.225-0.168 0.357-0.222l0.008-0.003c0.147-0.054 0.317-0.091 0.494-0.105l0.006-0 0.060-0.64s0-0.025 0-0.035c0.007-0.012 0.018-0.023 0.030-0.030l0-0c0.009-0.003 0.019-0.004 0.030-0.004s0.021 0.002 0.031 0.005l-0.001-0h0.22c0.011-0.002 0.023-0.004 0.035-0.004s0.024 0.001 0.036 0.004l-0.001-0c0.014 0.008 0.024 0.020 0.030 0.035l0 0c0.002 0.007 0.003 0.015 0.003 0.022s-0.001 0.016-0.003 0.023l0-0.001-0.070 0.63c0.074 0.008 0.141 0.021 0.205 0.037l-0.010-0.002 0.195 0.050c0.066 0.025 0.118 0.048 0.17 0.074l-0.010-0.004c0.038 0.017 0.071 0.037 0.101 0.061l-0.001-0.001c0.016 0.014 0.029 0.030 0.040 0.049l0 0.001c0.001 0.008 0.002 0.016 0.002 0.025s-0.001 0.017-0.002 0.026l0-0.001v0.065s0 0.055 0 0.085 0 0.075 0 0.105 0 0.050 0 0.070 0 0.030 0 0.035c-0.006 0.002-0.013 0.004-0.020 0.004s-0.014-0.001-0.020-0.004l0 0c-0.041-0.006-0.078-0.020-0.111-0.041l0.001 0.001c-0.053-0.031-0.116-0.061-0.181-0.087l-0.009-0.003-0.27-0.090c-0.1-0.025-0.214-0.040-0.332-0.040-0.001 0-0.002 0-0.003 0h0c-0.006-0-0.013-0-0.020-0-0.122 0-0.241 0.015-0.355 0.042l0.010-0.002c-0.093 0.027-0.175 0.067-0.248 0.117l0.003-0.002c-0.057 0.048-0.103 0.109-0.134 0.177l-0.001 0.003c-0.025 0.068-0.040 0.146-0.040 0.228 0 0.001 0 0.001 0 0.002v-0c-0 0.008-0.001 0.017-0.001 0.026 0 0.107 0.032 0.207 0.087 0.291l-0.001-0.002c0.062 0.086 0.139 0.158 0.227 0.213l0.003 0.002c0.092 0.060 0.198 0.111 0.31 0.147l0.010 0.003 0.37 0.135c0.125 0.045 0.245 0.095 0.365 0.15 0.123 0.054 0.229 0.123 0.321 0.206l-0.001-0.001c0.094 0.086 0.172 0.189 0.227 0.304l0.003 0.006c0.054 0.119 0.086 0.259 0.086 0.406 0 0.016-0 0.031-0.001 0.046l0-0.002c0 0.005 0 0.010 0 0.016 0 0.161-0.035 0.314-0.098 0.451l0.003-0.007c-0.068 0.14-0.16 0.259-0.273 0.354l-0.002 0.001c-0.122 0.101-0.265 0.181-0.421 0.232l-0.009 0.003c-0.17 0.059-0.367 0.097-0.571 0.105l-0.004 0-0.070 0.685c0.001 0.006 0.002 0.013 0.002 0.020s-0.001 0.014-0.002 0.021l0-0.001c-0.006 0.012-0.017 0.021-0.030 0.025l-0 0h-0.35c-0.014-0.008-0.024-0.020-0.030-0.035l-0-0c-0.002-0.007-0.004-0.014-0.004-0.023s0.001-0.016 0.004-0.023l-0 0.001 0.070-0.685c-0.106-0.010-0.202-0.026-0.295-0.048l0.015 0.003-0.23-0.065-0.175-0.075-0.105-0.070c-0.021-0.023-0.037-0.052-0.045-0.084l-0-0.001c-0.003-0.023-0.004-0.049-0.004-0.075s0.002-0.053 0.005-0.078l-0 0.003c-0.003-0.026-0.005-0.057-0.005-0.088 0-0.002 0-0.005 0-0.007v0zM30.5 27.75c0.138 0 0.25-0.112 0.25-0.25v0-5.17c0-0.138-0.112-0.25-0.25-0.25v0c-0.138 0-0.25 0.112-0.25 0.25v0 5.17c0.003 0.137 0.113 0.247 0.25 0.25h0zM30.5 29.050c0.138 0 0.25-0.112 0.25-0.25v0-0.25c0-0.138-0.112-0.25-0.25-0.25v0c-0.137 0.003-0.247 0.113-0.25 0.25v0.25c0.003 0.137 0.113 0.247 0.25 0.25h0z"></path>
</svg>
